<svg xmlns="http://www.w3.org/2000/svg" viewBox="0 0 240 240" width="240" height="240" role="img" aria-label="Avatar">
  <defs>
    <linearGradient id="g1" x1="0" x2="1" y1="0" y2="1">
      <stop offset="0%" stop-color="#7C4DFF"/>
      <stop offset="100%" stop-color="#00E5FF"/>
    </linearGradient>
    <radialGradient id="shadow" cx="50%" cy="90%" r="50%">
      <stop offset="0%" stop-color="rgba(0,0,0,0.4)"/>
      <stop offset="100%" stop-color="rgba(0,0,0,0)"/>
    </radialGradient>
  </defs>
  <rect width="240" height="240" rx="36" fill="#0B0C17"/>
  <circle cx="120" cy="120" r="84" fill="url(#g1)" opacity="0.25"/>
  <circle cx="120" cy="98" r="38" fill="#121325" stroke="#2C2D45" stroke-width="2"/>
  <rect x="64" y="140" width="112" height="52" rx="26" fill="#121325" stroke="#2C2D45" stroke-width="2"/>
  <g fill="white">
    <path d="M88 102c0-10 8-18 18-18h28c10 0 18 8 18 18v6c0 3-3 6-6 6h-52c-3 0-6-3-6-6v-6z" opacity=".9"/>
    <circle cx="106" cy="94" r="4"/>
    <circle cx="134" cy="94" r="4"/>
  </g>
  <ellipse cx="120" cy="206" rx="56" ry="10" fill="url(#shadow)"/>
  <text x="120" y="228" text-anchor="middle" font-family="Inter, Arial, sans-serif" font-weight="800" font-size="18" fill="white">KE</text>
</svg>


